<?xml version="1.0" encoding="utf-8" ?>
<svg xmlns="http://www.w3.org/2000/svg" xmlns:xlink="http://www.w3.org/1999/xlink" width="25" height="25">
	<defs>
		<clipPath id="clip_0">
			<path d="M12.5 0Q9.77435 0 7.01519 0.268168C3.45115 0.614563 0.629113 3.43211 0.277046 6.99559Q0 9.79974 0 12.5Q-1.11759e-08 15.2022 0.277437 18.0084C0.629933 21.5738 3.45495 24.392 7.02119 24.7358Q9.76059 25 12.5 25Q15.2414 25 17.9829 24.7355C21.5509 24.3911 24.3765 21.5701 24.7266 18.0027C24.9089 16.1457 25 14.3114 25 12.5Q25 9.78477 24.727 7.00128C24.3773 3.43574 21.5547 0.615382 17.9889 0.268562Q15.2276 0 12.5 0Z" clip-rule="evenodd"/>
		</clipPath>
	</defs>
	<g clip-path="url(#clip_0)">
		<path fill="rgb(255,255,255)" stroke="none" d="M0 0L25 0L25 25L0 25L0 0Z"/>
	</g>
	<defs>
		<clipPath id="clip_1">
			<path d="M12.5 0Q9.77435 0 7.01519 0.268168C3.45115 0.614563 0.629113 3.43211 0.277046 6.99559Q0 9.79974 0 12.5Q-1.11759e-08 15.2022 0.277437 18.0084C0.629933 21.5738 3.45495 24.392 7.02119 24.7358Q9.76059 25 12.5 25Q15.2414 25 17.9829 24.7355C21.5509 24.3911 24.3765 21.5701 24.7266 18.0027C24.9089 16.1457 25 14.3114 25 12.5Q25 9.78477 24.727 7.00128C24.3773 3.43574 21.5547 0.615382 17.9889 0.268562Q15.2276 0 12.5 0Z" clip-rule="evenodd"/>
		</clipPath>
	</defs>
	<g clip-path="url(#clip_1)">
		<path fill="none" stroke="rgb(108,123,138)" stroke-width="2" stroke-linecap="round" stroke-linejoin="round" transform="translate(9.89587 9.89584)" d="M5.72917 0L0 5.72917"/>
	</g>
	<defs>
		<clipPath id="clip_2">
			<path d="M12.5 0Q9.77435 0 7.01519 0.268168C3.45115 0.614563 0.629113 3.43211 0.277046 6.99559Q0 9.79974 0 12.5Q-1.11759e-08 15.2022 0.277437 18.0084C0.629933 21.5738 3.45495 24.392 7.02119 24.7358Q9.76059 25 12.5 25Q15.2414 25 17.9829 24.7355C21.5509 24.3911 24.3765 21.5701 24.7266 18.0027C24.9089 16.1457 25 14.3114 25 12.5Q25 9.78477 24.727 7.00128C24.3773 3.43574 21.5547 0.615382 17.9889 0.268562Q15.2276 0 12.5 0Z" clip-rule="evenodd"/>
		</clipPath>
	</defs>
	<g clip-path="url(#clip_2)">
		<path fill="none" stroke="rgb(108,123,138)" stroke-width="2" stroke-linecap="round" stroke-linejoin="round" transform="translate(9.89587 9.89584)" d="M0 0L5.72917 5.72917"/>
	</g>

</svg>