<?xml version="1.0" encoding="utf-8" ?>
<svg xmlns="http://www.w3.org/2000/svg" xmlns:xlink="http://www.w3.org/1999/xlink" width="32" height="32">
	<defs>
		<clipPath id="clip_0">
			<rect x="-172" y="-329" width="375" height="812" clip-rule="evenodd"/>
		</clipPath>
	</defs>
	<g clip-path="url(#clip_0)">
		<path fill="rgb(20,38,67)" stroke="none" d="M5.84059 0.714927C9.25685 0.238309 12.6433 4.21019e-16 16 0C19.3586 0 22.747 0.23858 26.1652 0.715739C28.8207 1.08642 30.9079 3.17388 31.2782 5.82937C31.7594 9.27973 32 12.6699 32 16C32 19.332 31.7591 22.7241 31.2774 26.1765C30.9069 28.8314 28.8204 30.9185 26.1655 31.2895C22.777 31.7632 19.3885 32 16 32C12.6134 32 9.22686 31.7635 5.84029 31.2904C3.18477 30.9194 1.09773 28.8316 0.727785 26.1759C0.242595 22.693 2.09419e-16 19.301 0 16C0 12.7009 0.242322 9.31085 0.726967 5.82997C1.0968 3.17373 3.18445 1.0855 5.84059 0.714927Z"/>
	</g>
	<defs>
		<clipPath id="clip_1">
			<rect x="-172" y="-329" width="375" height="812" clip-rule="evenodd"/>
		</clipPath>
	</defs>
	<g clip-path="url(#clip_1)">
		<path fill="rgb(255,255,255)" stroke="none" transform="matrix(-1 0 0 1 25.1416 7)" d="M2.37291 5.79119L2.37291 4.42412L1.026 4.42412C0.458853 4.42412 0 3.96408 0 3.39773C0 2.83177 0.458853 2.37173 1.026 2.37173L2.37291 2.37173L2.37291 1.0256C2.37291 0.459248 2.83295 0 3.39931 0C3.96645 0 4.4257 0.459248 4.4257 1.0256L4.4257 2.37212L5.7908 2.37212C6.35715 2.37212 6.81679 2.83216 6.81679 3.39812C6.81679 3.96447 6.35715 4.42451 5.7908 4.42451L4.4257 4.42451L4.4257 5.79119C4.4257 6.35715 3.96645 6.81679 3.39931 6.81679C2.83295 6.81679 2.37291 6.35715 2.37291 5.79119ZM17.0586 10.4742C16.4405 9.85052 15.6235 9.47071 14.7564 9.39048C15.505 8.71702 15.9773 7.74477 15.9773 6.6587C15.9773 4.62687 14.3308 2.98037 12.2985 2.98037C10.3576 2.98037 8.7684 4.4838 8.63047 6.38916C10.3572 7.13613 11.5689 8.85693 11.5689 10.8548C11.5689 11.5844 11.403 12.2973 11.0943 12.9443C11.5389 13.1767 11.9488 13.4771 12.306 13.8375C13.2222 14.76 13.7427 16.0354 13.7328 17.3356L13.732 17.3621L13.7312 17.3846L13.6988 18L18.1051 18L18.1415 13.1269C18.149 12.1329 17.7597 11.1797 17.0586 10.4742ZM9.16283 13.5873C9.91099 12.9143 10.3849 11.9416 10.3849 10.8556C10.3849 8.82334 8.73757 7.17644 6.70574 7.17644C4.6735 7.17644 3.02661 8.82334 3.02661 10.8556C3.02661 11.9397 3.49851 12.9115 4.24548 13.585C2.3326 13.7332 0.821667 15.3172 0.807834 17.2677L0.771474 18L12.5119 18L12.5483 17.3226C12.5554 16.329 12.1657 15.3757 11.465 14.6703C10.8461 14.0462 10.0296 13.6676 9.16283 13.5873Z" fill-rule="evenodd"/>
	</g>

</svg>