<?xml version="1.0" encoding="utf-8" ?>
<svg xmlns="http://www.w3.org/2000/svg" xmlns:xlink="http://www.w3.org/1999/xlink" width="32" height="32">
	<defs>
		<clipPath id="clip_0">
			<rect x="-15" y="-689" width="375" height="812" clip-rule="evenodd"/>
		</clipPath>
	</defs>
	<g clip-path="url(#clip_0)">
		<path fill="rgb(118,169,234)" stroke="none" d="M5.84059 0.714927C9.25685 0.238309 12.6433 4.21019e-16 16 0C19.3586 0 22.747 0.23858 26.1652 0.715739C28.8207 1.08642 30.9079 3.17388 31.2782 5.82937C31.7594 9.27973 32 12.6699 32 16C32 19.332 31.7591 22.7241 31.2774 26.1765C30.9069 28.8314 28.8204 30.9185 26.1655 31.2895C22.777 31.7632 19.3885 32 16 32C12.6134 32 9.22686 31.7635 5.84029 31.2904C3.18477 30.9194 1.09773 28.8316 0.727785 26.1759C0.242595 22.693 2.09419e-16 19.301 0 16C0 12.7009 0.242322 9.31085 0.726967 5.82997C1.0968 3.17373 3.18445 1.0855 5.84059 0.714927Z"/>
	</g>
	<defs>
		<clipPath id="clip_1">
			<rect x="-15" y="-689" width="375" height="812" clip-rule="evenodd"/>
		</clipPath>
	</defs>
	<g clip-path="url(#clip_1)">
		<path fill="rgb(255,255,255)" stroke="none" transform="translate(8 9)" d="M16.563 1.62863C16.189 1.79446 15.8008 1.92528 15.4025 2.01998C15.8414 1.60291 16.1714 1.08123 16.3576 0.498943L16.3576 0.498943C16.4107 0.332711 16.2302 0.188966 16.0801 0.27797L16.0801 0.27797C15.526 0.60666 14.9291 0.853239 14.3059 1.01094C14.2698 1.02009 14.2325 1.02472 14.1951 1.02472C14.0816 1.02472 13.9712 0.982581 13.8844 0.906092C13.2215 0.321796 12.3688 0 11.4836 0C11.1005 0 10.7137 0.0597058 10.334 0.177476C9.15746 0.542399 8.24964 1.51292 7.96482 2.71031C7.85796 3.15944 7.82903 3.60898 7.87877 4.04641C7.88447 4.09668 7.86071 4.13176 7.84606 4.14822C7.82034 4.17707 7.78385 4.1936 7.74598 4.1936C7.74175 4.1936 7.7374 4.1934 7.73309 4.19299C5.15766 3.95371 2.83525 2.71294 1.19365 0.699276L1.19365 0.699276C1.10994 0.596565 0.94941 0.609163 0.882687 0.723609L0.882687 0.723609C0.56122 1.27512 0.391335 1.90591 0.391335 2.54777C0.391335 3.53146 0.786543 4.45848 1.47302 5.13429C1.18433 5.06584 0.904928 4.95804 0.645383 4.81389L0.645383 4.81389C0.519816 4.74413 0.365319 4.83379 0.363555 4.97741L0.363555 4.97741C0.345582 6.43875 1.20116 7.73906 2.48284 8.32459C2.45703 8.3252 2.43122 8.32549 2.40537 8.32549C2.20221 8.32549 1.9965 8.30587 1.79403 8.26718L1.79403 8.26718C1.65263 8.24018 1.53383 8.37432 1.57774 8.51142L1.57774 8.51142C1.99375 9.81021 3.11203 10.7676 4.45026 10.9849C3.33961 11.7305 2.04623 12.1238 0.700082 12.1238L0.280418 12.1235C0.151117 12.1235 0.0417592 12.2078 0.00880814 12.333C-0.0236505 12.4564 0.0361374 12.5865 0.146398 12.6506C1.66329 13.5334 3.39353 14 5.15081 14C6.689 14 8.12785 13.6947 9.42743 13.0928C10.6188 12.5409 11.6716 11.752 12.5565 10.748C13.3809 9.81272 14.0256 8.73305 14.4725 7.53901C14.8986 6.40083 15.1238 5.18636 15.1238 4.02688L15.1238 3.97165C15.1238 3.78547 15.208 3.61029 15.3549 3.49104C15.9123 3.03843 16.3978 2.50563 16.7977 1.90747L16.7977 1.90747C16.9032 1.74952 16.7367 1.55157 16.563 1.62863L16.563 1.62863Z"/>
	</g>

</svg>